<svg xmlns="http://www.w3.org/2000/svg" xmlns:xlink="http://www.w3.org/1999/xlink" viewBox="0 0 200 200"><defs><clipPath id="a"><circle cx="100" cy="100" r="100" transform="translate(-41.42 100) rotate(-45)" style="fill:none"/></clipPath></defs><title>Femenino</title><g style="clip-path:url(#a)"><circle cx="100" cy="100" r="100" transform="translate(-41.42 100) rotate(-45)" style="fill:#f5f8ff"/><path d="M115.59,151.86a26.72,26.72,0,0,0,26.72-26.71c0-.81-.05-1.61-.12-2.4a26.68,26.68,0,0,0,2.65-47.25A26.71,26.71,0,0,0,100,48.32,26.7,26.7,0,0,0,55.15,75.5a26.68,26.68,0,0,0,2.66,47.25c-.07.79-.12,1.59-.12,2.4A26.71,26.71,0,0,0,84.4,151.86Z" style="fill:#0e2443"/><path d="M167.26,188.27c0,22.67-134.52,22.67-134.52,0S85.82,156.78,100,156.78,167.26,165.59,167.26,188.27Z" style="fill:#cfe1ff"/><path d="M88.08,129.37h23.84a0,0,0,0,1,0,0v28.48a10.59,10.59,0,0,1-10.59,10.59H98.67a10.59,10.59,0,0,1-10.59-10.59V129.37A0,0,0,0,1,88.08,129.37Z" style="fill:#a0c4ff"/><path d="M111.91,149.54V139.15H88.08v10.39a31.76,31.76,0,0,0,23.83,0Z" style="fill:#80b1ff"/><rect x="68.24" y="55.63" width="63.53" height="88.74" rx="28.21" style="fill:#a0c4ff"/><circle cx="65.03" cy="108.86" r="8.69" style="fill:#a0c4ff"/><path d="M58.83,109.43a.57.57,0,0,1-.56-.57A6.76,6.76,0,0,1,65,102.1a.56.56,0,1,1,0,1.12,5.65,5.65,0,0,0-5.64,5.64A.57.57,0,0,1,58.83,109.43Z" style="fill:#0e2443"/><circle cx="134.97" cy="108.86" r="8.69" style="fill:#a0c4ff"/><path d="M141.17,109.43a.57.57,0,0,1-.56-.57,5.65,5.65,0,0,0-5.64-5.64.56.56,0,1,1,0-1.12,6.76,6.76,0,0,1,6.76,6.76A.57.57,0,0,1,141.17,109.43Z" style="fill:#0e2443"/><path d="M65,87.33A16.72,16.72,0,0,0,85.51,75.92a16.64,16.64,0,0,0,16.22-1.18A20.41,20.41,0,0,0,122,92.6h13v-7a35,35,0,0,0-35-35h0a35,35,0,0,0-35,35Z" style="fill:#0e2443"/></g></svg>