<svg xmlns="http://www.w3.org/2000/svg" xmlns:xlink="http://www.w3.org/1999/xlink" viewBox="0 0 200 200"><defs><clipPath id="a"><circle cx="100" cy="100" r="100" transform="translate(-41.42 100) rotate(-45)" style="fill:none"/></clipPath></defs><title>Masculino</title><g style="clip-path:url(#a)"><circle cx="100" cy="100" r="100" transform="translate(-41.42 100) rotate(-45)" style="fill:#f5f8ff"/><path d="M167.26,188.27c0,22.67-134.52,22.67-134.52,0S85.82,156.78,100,156.78,167.26,165.59,167.26,188.27Z" style="fill:#cfe1ff"/><path d="M88.08,129.37h23.84a0,0,0,0,1,0,0v28.48a10.59,10.59,0,0,1-10.59,10.59H98.67a10.59,10.59,0,0,1-10.59-10.59V129.37A0,0,0,0,1,88.08,129.37Z" style="fill:#a0c4ff"/><path d="M111.91,149.54V139.15H88.08v10.39a31.76,31.76,0,0,0,23.83,0Z" style="fill:#80b1ff"/><rect x="68.24" y="55.63" width="63.53" height="88.74" rx="28.21" style="fill:#a0c4ff"/><circle cx="65.03" cy="108.86" r="8.69" transform="translate(-37.27 33.93) rotate(-22.92)" style="fill:#a0c4ff"/><path d="M58.83,109.43a.57.57,0,0,1-.56-.57A6.76,6.76,0,0,1,65,102.1a.56.56,0,1,1,0,1.12,5.65,5.65,0,0,0-5.64,5.64A.57.57,0,0,1,58.83,109.43Z" style="fill:#0e2443"/><circle cx="134.97" cy="108.86" r="8.69" transform="translate(-14.51 196.76) rotate(-69.35)" style="fill:#a0c4ff"/><path d="M141.17,109.43a.57.57,0,0,1-.56-.57,5.65,5.65,0,0,0-5.65-5.64.56.56,0,0,1,0-1.12,6.77,6.77,0,0,1,6.77,6.76A.57.57,0,0,1,141.17,109.43Z" style="fill:#0e2443"/><path d="M141,77l-7.17-4.14c4.05-11.83-3.74-22.1-3.74-22.1S125,56.6,116.42,53c-34.78-14.74-46.53,1.7-50.2,8.27-2.78,5-1.39,11.34-1.39,11.34L58.19,77l9.2,24.17s2.5,2.9,4.15-24h57.65c.58,21.88,2.57,24,2.57,24Z" style="fill:#0e2443"/></g></svg>