<svg xmlns="http://www.w3.org/2000/svg" xmlns:xlink="http://www.w3.org/1999/xlink" viewBox="0 0 233.44 237.08"><defs><clipPath id="a"><circle cx="116.08" cy="118.54" r="104.7" style="fill:none"/></clipPath></defs><title>Femenino</title><g style="isolation:isolate"><circle cx="116.08" cy="118.54" r="104.7" style="fill:#fff"/><circle cx="116.08" cy="118.54" r="113.08" style="fill:none;stroke:#fff;stroke-miterlimit:10;stroke-width:2px"/><g style="clip-path:url(#a)"><path d="M178.64,182.07c-.2-.64-6.08-51.32-10.74-91.59C164.69,62.71,142.5,42,116.35,42.25h0C90,42.55,68.17,64.07,65.72,92.11l-8.11,92.75Z" style="fill:#000035"/><path d="M178.13,178.37c-7.32-5.49-23.32-9.71-34.66-14.52l-.5-.22c-1.38-.59-2.69-1.19-3.9-1.81-.54-.27-1-.55-1.55-.83-3.2-1.81-5.51-3.74-6.3-5.87-.08-.22-.16-.45-.23-.67a57.65,57.65,0,0,1-26.29-.4c-.12.36-.24.71-.37,1.07-.89,2.39-3.69,4.53-7.53,6.53-.36.19-.71.38-1.09.56-1.07.52-2.21,1-3.39,1.54-.64.28-1.3.55-2,.82-11.18,4.52-26,8.59-32.93,13.8-11.32,8.49-16.58,44.48-16.58,44.48H194.71S189.45,186.86,178.13,178.37Z" style="fill:#f0c02a"/><path d="M131,154.45c-3.14-9.13-1.83-19.15-1.83-19.15l-11.39.79-12.19-.79s2,9.73-.88,18.75A57.65,57.65,0,0,0,131,154.45Z" style="fill:#eba08c"/><path d="M157.09,95.43c0,22.77-14.48,49.95-41.23,49.95S74.63,118.2,74.63,95.43a41.23,41.23,0,1,1,82.46,0Z" style="fill:#eba08c"/><path d="M79.22,97.8a24.63,24.63,0,0,0,3.8-10c.7-3.93.85-8.2-1.08-11.7a6.27,6.27,0,0,0-2.51-2.64,5.67,5.67,0,0,0-6.06,1A12,12,0,0,0,70.07,80c-2,6.06-1.86,12.59-.73,18.81.54,3,.43,5.2,3.86,3.87A13.65,13.65,0,0,0,79.22,97.8Z" style="fill:#000035"/><path d="M154.22,97.8a24.63,24.63,0,0,1-3.8-10c-.7-3.93-.85-8.2,1.08-11.7A6.27,6.27,0,0,1,154,73.41a5.68,5.68,0,0,1,6.06,1,12,12,0,0,1,3.3,5.53c2,6.06,1.86,12.59.73,18.81-.54,3-.43,5.2-3.86,3.87A13.65,13.65,0,0,1,154.22,97.8Z" style="fill:#000035"/><path d="M168,102.37a15,15,0,0,1-4.24,7.7,11.2,11.2,0,0,1-4.79,3,5.73,5.73,0,0,1-5-.81,7.42,7.42,0,0,1-2.45-4.32,15.85,15.85,0,0,1,2.77-12.11c1.7-2.41,4.11-4.38,6.71-4.71C166.25,90.43,169,97.16,168,102.37Z" style="fill:#eba08c"/><path d="M153.32,108.49a6.76,6.76,0,0,0,3.55-1.28,1,1,0,0,0,.39-1.56,11,11,0,0,0-2.61-2.79,22.29,22.29,0,0,1,2.6-4.78,6.9,6.9,0,0,1,4.32-2.82,3.91,3.91,0,0,1,4.19,2.29s2.28,4.82-3.08,10C157,113.07,153.32,108.49,153.32,108.49Z" style="fill:#eba08c;mix-blend-mode:multiply"/><path d="M165.76,97.55a3.73,3.73,0,0,0-3.08-1.9,4.9,4.9,0,0,0-3.32,1.17A10.08,10.08,0,0,0,157,99.65a38.78,38.78,0,0,0-1.75,3.47l-.2-.77a11.46,11.46,0,0,1,1.78,1.77,11.76,11.76,0,0,1,.72,1,4,4,0,0,1,.33.6,1.15,1.15,0,0,1,0,.91,2.12,2.12,0,0,1-1,1,6.07,6.07,0,0,1-1.14.5,6,6,0,0,1-2.4.33,7.5,7.5,0,0,0,2.2-.79c.33-.19.64-.42.95-.64s.56-.49.58-.69,0-.13-.05-.24-.19-.26-.3-.41-.48-.59-.74-.87a10.8,10.8,0,0,0-1.69-1.48l-.41-.28.2-.49A28.41,28.41,0,0,1,155.84,99a9.85,9.85,0,0,1,2.83-3.1,5.45,5.45,0,0,1,4.12-1A3.84,3.84,0,0,1,165.76,97.55Z" style="fill:#000035"/><path d="M62.54,102.37a14.92,14.92,0,0,0,4.24,7.7,11.2,11.2,0,0,0,4.79,3,5.7,5.7,0,0,0,5-.81A7.37,7.37,0,0,0,79,107.9a15.89,15.89,0,0,0-2.77-12.11c-1.7-2.41-4.12-4.38-6.71-4.71C64.33,90.43,61.56,97.16,62.54,102.37Z" style="fill:#eba08c"/><path d="M77.26,108.49a6.82,6.82,0,0,1-3.56-1.28,1.25,1.25,0,0,1-.64-1,1.23,1.23,0,0,1,.25-.6,11.07,11.07,0,0,1,2.62-2.79,22.29,22.29,0,0,0-2.6-4.78A6.93,6.93,0,0,0,69,95.26a3.92,3.92,0,0,0-4.2,2.29s-2.27,4.82,3.09,10C73.56,113.07,77.26,108.49,77.26,108.49Z" style="fill:#eba08c;mix-blend-mode:multiply"/><path d="M64.81,97.55a3.85,3.85,0,0,1,3-2.67,5.46,5.46,0,0,1,4.13,1A9.7,9.7,0,0,1,74.73,99a26,26,0,0,1,1.78,3.64l.21.49-.41.28a10.8,10.8,0,0,0-1.69,1.48c-.26.28-.51.57-.74.87a4.5,4.5,0,0,0-.3.41.33.33,0,0,0-.06.24c0,.2.29.46.59.69a9.27,9.27,0,0,0,1,.64,7.4,7.4,0,0,0,2.2.79,6.66,6.66,0,0,1-3.55-.83,2.21,2.21,0,0,1-1-1,1.24,1.24,0,0,1,0-.91,5.13,5.13,0,0,1,.34-.6c.22-.35.46-.69.71-1a12,12,0,0,1,1.79-1.77l-.2.77a38.78,38.78,0,0,0-1.75-3.47,10.08,10.08,0,0,0-2.38-2.83,4.9,4.9,0,0,0-3.32-1.17A3.75,3.75,0,0,0,64.81,97.55Z" style="fill:#000035"/><path d="M89,92.86a18.79,18.79,0,0,1,3.34-4.94,21.09,21.09,0,0,1,4.75-3.74,15.52,15.52,0,0,1,5.7-2.22,12,12,0,0,1,6,.62l0,.19c-2,.34-3.83.66-5.64,1.15a35.75,35.75,0,0,0-5.36,1.68,20.23,20.23,0,0,0-4.79,3A19.87,19.87,0,0,0,89.2,93Z" style="fill:#000035"/><path d="M145.1,93a19.83,19.83,0,0,0-3.84-4.32,20.49,20.49,0,0,0-4.8-3,35.75,35.75,0,0,0-5.36-1.68c-1.8-.49-3.65-.81-5.64-1.15l0-.19a12,12,0,0,1,6.05-.62,15.52,15.52,0,0,1,5.7,2.22A21.37,21.37,0,0,1,142,87.92a18.75,18.75,0,0,1,3.33,4.94Z" style="fill:#000035"/><path d="M105.59,120.42A28.35,28.35,0,0,0,112,125a15.27,15.27,0,0,0,3.59,1.34,16.92,16.92,0,0,0,1.86.35,11.56,11.56,0,0,0,1.86,0,10,10,0,0,0,3.61-.92,16.74,16.74,0,0,0,3.32-1.92,34.47,34.47,0,0,0,5.75-5.4,21.69,21.69,0,0,1-5,6.29,13.09,13.09,0,0,1-7.53,3.39,11.75,11.75,0,0,1-4.18-.47,14.59,14.59,0,0,1-3.78-1.68A19.22,19.22,0,0,1,105.59,120.42Z" style="fill:#000035"/><path d="M96.1,139.57A47.63,47.63,0,0,0,107,144.31a37.22,37.22,0,0,0,11.54,1.53,28.59,28.59,0,0,0,11.13-3,48.86,48.86,0,0,0,9.92-6.53,32.88,32.88,0,0,1-9.21,7.86,26.1,26.1,0,0,1-11.75,3.63,33.1,33.1,0,0,1-22.51-8.2Z" style="fill:#000035"/><ellipse cx="138.87" cy="110.8" rx="8.71" ry="6.61" style="fill:#eba08c;opacity:0.2;mix-blend-mode:multiply"/><ellipse cx="96.63" cy="110.8" rx="8.71" ry="6.61" style="fill:#eba08c;opacity:0.2;mix-blend-mode:multiply"/><path d="M116.89,93.72c.37,2,1,3.91,1.46,5.86l1.53,5.84c1,3.9,2,7.81,2.85,11.74l.16.71-.7,0c-1.14,0-2.28.06-3.42,0s-2.29,0-3.43-.14c1.12-.26,2.24-.47,3.37-.65s2.26-.33,3.39-.45l-.53.74c-.55-1.94-1-3.9-1.53-5.85s-.94-3.92-1.34-5.9-.81-4-1.15-6c-.17-1-.31-2-.43-3A20.61,20.61,0,0,1,116.89,93.72Z" style="fill:#000035"/><path d="M76.31,71c2.9,4.25,6.83,8.36,11.93,9.07,1.06.15,2.43,0,2.76-1.06a2.61,2.61,0,0,0,0-1.33,56,56,0,0,0-3.13-9.81c1.85,2.64,4.8,4.26,7.71,5.65A98,98,0,0,0,109,78.72a30.52,30.52,0,0,0,11.21,1.71c.93-.08,2.11-.52,2.06-1.45a2,2,0,0,0-.49-1l-4.75-6.23c2.66,2.18,6,3.25,9.32,4.24,9.87,2.94,20.45,5.49,30.36,2.65-4.81-12.81-14.44-24.69-27-30a39,39,0,0,0-15.24-3.33c-5.67,0-11.22,1.56-16.56,3.44-4.89,1.72-9.75,3.76-13.85,6.94A34.15,34.15,0,0,0,72.34,74" style="fill:#000035"/><path d="M95.88,98.64a5.33,5.33,0,0,1,1.44-4.54,6,6,0,0,1,9.22.16,5.31,5.31,0,0,1,1.29,4.58,7.15,7.15,0,0,0-2.38-3.47,5.54,5.54,0,0,0-7.08-.12A7.06,7.06,0,0,0,95.88,98.64Z" style="fill:#000035"/><path d="M128.24,98.64a5.33,5.33,0,0,1,1.44-4.54,6,6,0,0,1,9.23.16,5.3,5.3,0,0,1,1.28,4.58,7.15,7.15,0,0,0-2.38-3.47,5.54,5.54,0,0,0-7.08-.12A7.12,7.12,0,0,0,128.24,98.64Z" style="fill:#000035"/><g style="opacity:0.38"><path d="M92.32,56.63a35.65,35.65,0,0,0,8.84,8.49,34.58,34.58,0,0,0,11.1,5l-.44.61c-1.73-2.54-3.47-5.07-5.28-7.56s-3.67-4.93-5.58-7.34l.74-.62A45.48,45.48,0,0,0,111,63.06a47.78,47.78,0,0,0,11.07,5.12,46.84,46.84,0,0,0,12,2.2,45.4,45.4,0,0,0,12.24-1,42.87,42.87,0,0,1-12.26,1.48A47.24,47.24,0,0,1,121.86,69a46.92,46.92,0,0,1-11.33-5.1,43.44,43.44,0,0,1-9.55-8l.75-.63q2.83,3.66,5.54,7.42c1.79,2.51,3.55,5,5.22,7.64l.57.88-1-.27a35.42,35.42,0,0,1-11.19-5.38A34.13,34.13,0,0,1,92.32,56.63Z" style="fill:#fff"/><path d="M109.87,48.59a39.64,39.64,0,0,0,7.79,5.84,40.29,40.29,0,0,0,8.92,3.73,40.07,40.07,0,0,0,9.55,1.52l2.43,0,2.43-.15,2.42-.28c.8-.16,1.61-.3,2.42-.44-.78.24-1.57.48-2.36.7l-2.42.51-2.46.29-2.47.12a34.57,34.57,0,0,1-18.85-5.37l-2-1.4-1.93-1.54-1.79-1.71C111,49.82,110.41,49.21,109.87,48.59Z" style="fill:#fff"/><path d="M161.69,115.53c.58,4.74,1.09,9.49,1.63,14.23l1.6,14.22,1.6,14.21.8,7.11.77,7.12c-.46-2.34-.84-4.7-1.25-7l-1.09-7.08c-.69-4.72-1.25-9.46-1.83-14.2s-1-9.5-1.36-14.26S161.86,120.31,161.69,115.53Z" style="fill:#fff"/><path d="M151.11,130.39c.38,2.6.64,5.21.89,7.82s.43,5.23.61,7.84.31,5.24.39,7.86l.11,3.93c0,1.32,0,2.63,0,3.94-.2-1.3-.33-2.6-.49-3.9l-.39-3.92c-.26-2.61-.44-5.23-.62-7.84s-.3-5.24-.38-7.86S151.08,133,151.11,130.39Z" style="fill:#fff"/><path d="M142.76,140.48c.44,2.8.65,5.59.85,8.39s.34,5.59.27,8.43a50.31,50.31,0,0,1-1.12-16.82Z" style="fill:#fff"/><path d="M94,144.68a36.61,36.61,0,0,1,0,12.06,36.61,36.61,0,0,1,0-12.06Z" style="fill:#fff"/><path d="M78.86,127c.12,3.49.11,7,.07,10.46s-.16,7-.31,10.46-.36,7-.65,10.44l-.46,5.21c-.19,1.74-.35,3.48-.59,5.21,0-1.75.08-3.49.1-5.24l.18-5.22c.11-3.48.28-7,.43-10.44l.54-10.44C78.37,134,78.57,130.5,78.86,127Z" style="fill:#fff"/><path d="M69.85,122.53c0,3.94-.12,7.87-.25,11.8s-.35,7.85-.52,11.78-.46,7.85-.76,11.77l-.46,5.88c-.18,2-.34,3.92-.56,5.87,0-2,0-3.93.08-5.9l.18-5.89c.13-3.93.35-7.86.52-11.79s.46-7.84.75-11.76S69.44,126.45,69.85,122.53Z" style="fill:#fff"/></g><path d="M103.48,157.28a54.51,54.51,0,0,0,28.76-.6" style="fill:none;stroke:#000035;stroke-miterlimit:10"/><path d="M71.69,180.86A42.94,42.94,0,0,0,68,191a44.37,44.37,0,0,0,.53,21.28l.79,2.58,1,2.52,1.11,2.46c.44.8.86,1.59,1.28,2.4-.51-.75-1-1.5-1.51-2.27l-1.32-2.39-1.11-2.5-.94-2.58a38.57,38.57,0,0,1-.53-21.68l.8-2.62,1-2.55,1.2-2.46C70.75,182.41,71.21,181.63,71.69,180.86Z" style="fill:#000035"/><path d="M166.27,180.86c.47.77.94,1.55,1.39,2.34l1.2,2.46,1,2.55.81,2.62a38.81,38.81,0,0,1-.53,21.68l-.94,2.58-1.11,2.5L166.75,220c-.49.77-1,1.52-1.5,2.27.42-.81.84-1.6,1.27-2.4l1.11-2.46,1-2.52.79-2.58a44.71,44.71,0,0,0,.53-21.28A43.85,43.85,0,0,0,166.27,180.86Z" style="fill:#000035"/></g></g></svg>