<svg xmlns="http://www.w3.org/2000/svg" xmlns:xlink="http://www.w3.org/1999/xlink" viewBox="0 0 233.44 237.08"><defs><clipPath id="a"><circle cx="116.08" cy="118.38" r="104.7" style="fill:none"/></clipPath></defs><title>Masculino</title><g style="isolation:isolate"><circle cx="116.08" cy="118.38" r="104.7" style="fill:#fff"/><circle cx="116.08" cy="118.38" r="113.08" style="fill:none;stroke:#fff;stroke-miterlimit:10;stroke-width:2px"/><g style="clip-path:url(#a)"><path d="M156.27,104.14c0,22.78-14.48,50-41.23,50s-41.23-27.17-41.23-49.95a41.23,41.23,0,0,1,82.46,0Z" style="fill:#eba08c"/><path d="M78.4,106.51a24.58,24.58,0,0,0,3.8-10.05c.7-3.93.85-8.2-1.08-11.7a6.27,6.27,0,0,0-2.51-2.64,5.68,5.68,0,0,0-6.06,1,12.07,12.07,0,0,0-3.3,5.53c-2,6.06-1.86,12.59-.73,18.81.54,3,.43,5.2,3.86,3.87A13.58,13.58,0,0,0,78.4,106.51Z" style="fill:#000035"/><path d="M153.4,106.51a24.72,24.72,0,0,1-3.8-10.05c-.7-3.93-.85-8.2,1.09-11.7a6.19,6.19,0,0,1,2.5-2.64,5.67,5.67,0,0,1,6.06,1,12,12,0,0,1,3.3,5.53c2,6.06,1.86,12.59.73,18.81-.54,3-.42,5.2-3.86,3.87A13.58,13.58,0,0,1,153.4,106.51Z" style="fill:#000035"/><path d="M104.23,101.79a3.67,3.67,0,1,1-3.66-3.66A3.66,3.66,0,0,1,104.23,101.79Z" style="fill:#000035"/><path d="M88.12,99.53a18.26,18.26,0,0,1,3.1-5.24,19.85,19.85,0,0,1,4.72-4.07c.46-.27.91-.54,1.36-.83l1.42-.77c.49-.21,1-.41,1.5-.58s1-.22,1.59-.29a9.58,9.58,0,0,1,6.25,1.44l0,.39c-2,.85-3.75,1.38-5.45,2a9.77,9.77,0,0,1-1.27.39c-.42.12-.86.22-1.3.3l-1.32.3c-.44.13-.87.28-1.3.43a22.42,22.42,0,0,0-4.82,2.73,20.42,20.42,0,0,0-4.09,4Z" style="fill:#000035"/><circle cx="132.1" cy="101.79" r="3.66" style="fill:#000035"/><path d="M144.2,99.71a20.11,20.11,0,0,0-4.08-4A22.25,22.25,0,0,0,135.29,93c-.43-.15-.86-.3-1.29-.43l-1.32-.3a13,13,0,0,1-1.3-.3,9.91,9.91,0,0,1-1.28-.39c-1.7-.59-3.41-1.12-5.45-2l0-.39a9.57,9.57,0,0,1,6.25-1.44c.53.07,1.06.17,1.59.29s1,.37,1.5.58l1.41.77c.45.29.91.56,1.36.83a19.9,19.9,0,0,1,4.73,4.07,18,18,0,0,1,3.09,5.24Z" style="fill:#000035"/><path d="M103.77,127.14a28.85,28.85,0,0,0,6.42,4.55,15.93,15.93,0,0,0,3.59,1.35,16.88,16.88,0,0,0,1.86.34,10.62,10.62,0,0,0,1.87,0,10,10,0,0,0,3.6-.92,16.74,16.74,0,0,0,3.32-1.92,34.51,34.51,0,0,0,5.76-5.4,21.59,21.59,0,0,1-5.06,6.29,13.14,13.14,0,0,1-7.52,3.4,12,12,0,0,1-4.18-.48,14.51,14.51,0,0,1-3.79-1.68A19.43,19.43,0,0,1,103.77,127.14Z" style="fill:#000035"/><path d="M118,184.37c10.55,0,17-8.16,20.23-13.84-4-2.05-6.94-4.24-7.85-6.7-3.43-9.3-2.06-19.81-2.06-19.81L117,144.8l-12.2-.78s2.19,10.51-1.25,19.81c-1,2.62-4.21,4.93-8.62,7.09C98.6,175.9,106.6,184.37,118,184.37Z" style="fill:#eba08c"/><path d="M177.31,187.08c-7.31-5.48-23.32-9.71-34.66-14.52-4,7-11.9,17-24.86,17-13.86,0-23.62-10.16-28.25-16.3-11.19,4.52-26,8.59-32.94,13.8C45.28,195.58,40,231.57,40,231.57H193.89S188.64,195.58,177.31,187.08Z" style="fill:#2847fb"/><path d="M117.79,189.58c13,0,20.9-10,24.86-17q-2.35-1-4.4-2c-3.22,5.68-9.68,13.84-20.23,13.84-11.42,0-19.42-8.47-23.13-13.45-1.64.81-3.45,1.59-5.35,2.36C94.17,179.42,103.93,189.58,117.79,189.58Z" style="fill:#071882"/><path d="M95.28,148.28a55.55,55.55,0,0,0,11,3.73,47,47,0,0,0,11.37,1.16,31.89,31.89,0,0,0,11-2.51,49.12,49.12,0,0,0,10.1-5.67,32.33,32.33,0,0,1-9.48,7,31.33,31.33,0,0,1-5.6,2.16,27.9,27.9,0,0,1-6,.92,38,38,0,0,1-11.82-1.64A34.64,34.64,0,0,1,95.28,148.28Z" style="fill:#000035"/><ellipse cx="138.05" cy="117.51" rx="8.71" ry="6.61" style="fill:#eba08c;opacity:0.2;mix-blend-mode:multiply"/><ellipse cx="95.81" cy="117.51" rx="8.71" ry="6.61" style="fill:#eba08c;opacity:0.2;mix-blend-mode:multiply"/><path d="M115.83,96.57a85.52,85.52,0,0,0,1.89,11.49,23.52,23.52,0,0,0,2.17,5.25,15.71,15.71,0,0,0,3.53,4.32l.44.37-.28.45a17.93,17.93,0,0,1-3.66,4.28,20.7,20.7,0,0,1-4.64,3,33.55,33.55,0,0,0,4-3.64,21.72,21.72,0,0,0,3.14-4.3l.16.82a15.24,15.24,0,0,1-4-4.61,20.74,20.74,0,0,1-2.18-5.64,31.24,31.24,0,0,1-.75-5.92A52.77,52.77,0,0,1,115.83,96.57Z" style="fill:#000035"/><path d="M162.86,101.41c4.16-4,7.63-36.48,5.83-41.92a14.24,14.24,0,0,1-3.64,6.14A25.53,25.53,0,0,0,166.73,58a35.93,35.93,0,0,0-3.48-16.08,28.4,28.4,0,0,1-16.05,5.15c-5.72.16-11.54-.08-16.92-2A17.16,17.16,0,0,0,133.92,39c-5.24,1.49-10.79,1.59-16.25,1.58s-11-.14-16.33.94a25.31,25.31,0,0,0-14.15,8.36c.37-2.76,1.33-6.6,1.32-9.39-2.34,3.12-6.22,4.82-8.76,7.79a12.22,12.22,0,0,0-2.87,8.88c-.6-.75-2.28-1.05-3.26-1.07a9.22,9.22,0,0,0-2.87.54,67.77,67.77,0,0,0-9.12,3.55,14,14,0,0,0,10.12,2.58c-4.26,3.16-7.67,8.5-8.06,13.71s1,22.14,4.79,25.87C73.07,102.19,78.3,89,81.77,86a19.77,19.77,0,0,0,6.65-11.49,31.63,31.63,0,0,0,20.41,9.11,21,21,0,0,0-6-10c4.48,3.26,9.39,3.45,15,3.62s11.31,0,16.58,1.78c5.9,2,15.11,9,19.22,13.58" style="fill:#000035"/><path d="M167.22,111.08a14.92,14.92,0,0,1-4.24,7.7,11.33,11.33,0,0,1-4.79,3,5.77,5.77,0,0,1-5-.81,7.43,7.43,0,0,1-2.46-4.33,15.86,15.86,0,0,1,2.77-12.1c1.7-2.42,4.12-4.39,6.71-4.71C165.43,99.14,168.2,105.87,167.22,111.08Z" style="fill:#eba08c"/><path d="M152.5,117.2a6.89,6.89,0,0,0,3.56-1.27,1.26,1.26,0,0,0,.63-1,1.13,1.13,0,0,0-.24-.61,11.42,11.42,0,0,0-2.62-2.79,22.77,22.77,0,0,1,2.6-4.78,6.9,6.9,0,0,1,4.32-2.82,3.92,3.92,0,0,1,4.2,2.29s2.27,4.82-3.09,10C156.2,121.78,152.5,117.2,152.5,117.2Z" style="fill:#eba08c;mix-blend-mode:multiply"/><path d="M165,106.26a3.77,3.77,0,0,0-3.09-1.9,4.9,4.9,0,0,0-3.32,1.17,10.22,10.22,0,0,0-2.38,2.83,38.78,38.78,0,0,0-1.75,3.47l-.2-.77a12,12,0,0,1,1.79,1.77c.25.33.49.67.71,1a5.13,5.13,0,0,1,.34.6,1.19,1.19,0,0,1,0,.91,2.15,2.15,0,0,1-1,1,6.37,6.37,0,0,1-1.14.5,6.07,6.07,0,0,1-2.41.33,7.4,7.4,0,0,0,2.2-.79,7.89,7.89,0,0,0,1-.64c.3-.23.56-.49.59-.69a.33.33,0,0,0-.06-.24,4.5,4.5,0,0,0-.3-.41,10.15,10.15,0,0,0-.74-.86,9.86,9.86,0,0,0-1.69-1.48l-.41-.29.21-.48a26.61,26.61,0,0,1,1.77-3.65,9.92,9.92,0,0,1,2.83-3.09,5.38,5.38,0,0,1,4.13-1A3.82,3.82,0,0,1,165,106.26Z" style="fill:#000035"/><path d="M61.72,111.08a14.92,14.92,0,0,0,4.24,7.7,11.33,11.33,0,0,0,4.79,3,5.77,5.77,0,0,0,5-.81,7.43,7.43,0,0,0,2.46-4.33,15.86,15.86,0,0,0-2.77-12.1c-1.7-2.42-4.11-4.39-6.71-4.71C63.51,99.14,60.74,105.87,61.72,111.08Z" style="fill:#eba08c"/><path d="M76.44,117.2a6.83,6.83,0,0,1-3.55-1.27,1.25,1.25,0,0,1-.64-1,1.14,1.14,0,0,1,.25-.61,11.2,11.2,0,0,1,2.61-2.79,22.77,22.77,0,0,0-2.6-4.78A6.9,6.9,0,0,0,68.19,104,3.9,3.9,0,0,0,64,106.26s-2.28,4.82,3.08,10C72.74,121.78,76.44,117.2,76.44,117.2Z" style="fill:#eba08c;mix-blend-mode:multiply"/><path d="M64,106.26a3.81,3.81,0,0,1,3-2.66,5.36,5.36,0,0,1,4.12,1,9.92,9.92,0,0,1,2.83,3.09,26.61,26.61,0,0,1,1.77,3.65l.21.48-.41.29a9.86,9.86,0,0,0-1.69,1.48,10.15,10.15,0,0,0-.74.86,4.5,4.5,0,0,0-.3.41.39.39,0,0,0-.06.24c0,.2.29.46.59.69a7.89,7.89,0,0,0,.95.64,7.5,7.5,0,0,0,2.2.79,6,6,0,0,1-2.4-.33,6.07,6.07,0,0,1-1.14-.5,2.12,2.12,0,0,1-1-1,1.15,1.15,0,0,1,0-.91,4,4,0,0,1,.33-.6c.22-.35.46-.69.71-1a12,12,0,0,1,1.79-1.77l-.2.77a38.78,38.78,0,0,0-1.75-3.47,10.22,10.22,0,0,0-2.38-2.83,4.9,4.9,0,0,0-3.32-1.17A3.75,3.75,0,0,0,64,106.26Z" style="fill:#000035"/><g style="opacity:0.35000000000000003"><path d="M86.75,55a17.35,17.35,0,0,0,6.74,7.18,37.3,37.3,0,0,0,9.18,3.8l-.37.49a31,31,0,0,0-3.69-4.43L94.5,58l.62-.6a18.19,18.19,0,0,0,7.07,4.34,34.51,34.51,0,0,0,8.27,1.68c2.82.27,5.67.39,8.54.62a68.19,68.19,0,0,1,8.53,1.23,52.84,52.84,0,0,1,16.06,6.14c1.25.71,2.43,1.53,3.61,2.35L148.89,75c.57.45,1.08,1,1.62,1.43A36.44,36.44,0,0,1,156.1,83a40.14,40.14,0,0,0-12.81-11.1,55.5,55.5,0,0,0-15.94-5.78,66.21,66.21,0,0,0-8.43-1.15c-2.83-.22-5.7-.29-8.56-.59a34.94,34.94,0,0,1-8.48-1.79A19.07,19.07,0,0,1,94.5,58l.62-.6c1.35,1.39,2.74,2.76,4.06,4.2a31.08,31.08,0,0,1,3.67,4.61l.47.75-.84-.26a36,36,0,0,1-9.21-4.09A17.16,17.16,0,0,1,86.75,55Z" style="fill:#fff"/><path d="M109.15,47.74a36.58,36.58,0,0,0,9.09,5.45,35.24,35.24,0,0,0,10.22,2.54l-.28.79c-2.36-1.53-4.93-2.94-6.94-5.13l-3-3.3,3.66,2.59a9.08,9.08,0,0,0,4.19,1.5,24.64,24.64,0,0,0,4.63.07c1.56-.1,3.15-.22,4.75-.23a42.29,42.29,0,0,1,4.78.28,40.14,40.14,0,0,1,9.23,2.37,37.34,37.34,0,0,1,8.31,4.57c-1.35-.83-2.72-1.6-4.13-2.29a47,47,0,0,0-4.36-1.79,40,40,0,0,0-9.14-2,43.12,43.12,0,0,0-4.68-.22c-1.56,0-3.12.16-4.7.28a26.78,26.78,0,0,1-4.82,0,9.93,9.93,0,0,1-4.62-1.71l.64-.71c1.84,2.06,4.32,3.47,6.7,5l1.49,1-1.77-.19A33.74,33.74,0,0,1,118,53.7,32.74,32.74,0,0,1,109.15,47.74Z" style="fill:#fff"/><path d="M81.75,64.64c0,.58,0,1.17,0,1.75l-.19,1.75-.33,1.72-.45,1.71a25.64,25.64,0,0,1-3,6.4,25.26,25.26,0,0,1-4.56,5.38l-1.35,1.13-1.43,1-1.5.91c-.52.27-1,.53-1.57.78.48-.34.95-.68,1.42-1l1.36-1.08L71.46,84l1.23-1.2a33.71,33.71,0,0,0,4.25-5.36A33,33,0,0,0,80,71.32,34.18,34.18,0,0,0,81.75,64.64Z" style="fill:#fff"/></g></g></g></svg>